# xmcd
#
# Track frame offsets: 
#        150
#        28172
#        71355
#        97806
#        128272
#        167654
#        201169
#        227607
#        255551
#
# Disc length: 4003 seconds
#
# Revision: 0
# Processed by: cddbd v1.5.2PL0 Copyright (c) Steve Scherf et al.
# Submitted via: ExactAudioCopy v0.99pb5
#
DISCID=670fa109
DTITLE=Joe Louis Walker - 2012-01-22 - Blues Cruise aboard the Holland
DTITLE=America
DYEAR=2012
DGENRE=Blues
TTITLE0=Too Drunk To Drive Drunk Home This Time
TTITLE1=Slow Down GTO
TTITLE2=I'm A Soldier For Jesus
TTITLE3=It's A Game, She Don't Love You
TTITLE4=Lovers Holiday
TTITLE5=Sugar Coated Loving
TTITLE6=I Don't Sing For Free
TTITLE7=She Got Eyes Like A Cat
TTITLE8=Black Girls
EXTD=
EXTT0=
EXTT1=
EXTT2=
EXTT3=
EXTT4=
EXTT5=
EXTT6=
EXTT7=
EXTT8=
PLAYORDER=
